<svg width="20" height="20" viewBox="0 0 20 20" fill="none" xmlns="http://www.w3.org/2000/svg">
<path d="M5.25 12.6941C4.00736 12.6941 3 11.9086 3 10.7567C3 9.60491 4.00736 8.67117 5.25 8.67117C5.3345 8.67117 5.41792 8.67548 5.5 8.6839V8.67117H5.53095C5.51052 8.51934 5.5 8.36466 5.5 8.2077C5.5 6.15999 7.29086 4.5 9.5 4.5C10.996 4.5 12.3001 5.26121 12.9863 6.38855C13.1539 6.36569 13.3255 6.35385 13.5 6.35385C15.433 6.35385 17 7.80635 17 9.59809C17 11.073 15.9381 12.1974 14.4844 12.568M9.88953 15.5V10.1774M12.1875 12.3725L9.88953 10.1774L7.59375 12.3725" stroke="#212531" stroke-width="1.5" stroke-linecap="round" stroke-linejoin="round"/>
</svg>
