<svg width="20" height="20" viewBox="0 0 20 20" fill="none" xmlns="http://www.w3.org/2000/svg">
<path d="M4 5.47059H16M8.5 13.7059V8.76471M11.5 13.7059V8.76471M13 17H7C6.17157 17 5.5 16.2626 5.5 15.3529V6.29412C5.5 5.83929 5.83579 5.47059 6.25 5.47059H13.75C14.1642 5.47059 14.5 5.83929 14.5 6.29412V15.3529C14.5 16.2626 13.8284 17 13 17ZM8.5 5.47059H11.5C11.9142 5.47059 12.25 5.10188 12.25 4.64706V3.82353C12.25 3.36871 11.9142 3 11.5 3H8.5C8.08579 3 7.75 3.36871 7.75 3.82353V4.64706C7.75 5.10188 8.08579 5.47059 8.5 5.47059Z" stroke="#212531" stroke-width="1.5" stroke-linecap="round" stroke-linejoin="round"/>
</svg>
