<svg width="20" height="20" viewBox="0 0 20 20" fill="none" xmlns="http://www.w3.org/2000/svg">
<path d="M17.9996 10.0002C18.043 5.62545 14.5312 2.04423 10.1562 2.00036C10.1046 1.99988 10.053 1.99988 10.0014 2.00036V2.00325C5.626 1.95986 2.04377 5.47117 2.00037 9.84547C1.99989 9.89802 1.99989 9.95058 2.00037 10.0026C1.95842 14.3774 5.47121 17.9577 9.84665 17.9996C9.89824 18.0001 9.94984 18.0001 10.0014 17.9996C14.3769 18.0416 17.9577 14.5293 17.9996 10.1545C18.0001 10.1029 18.0001 10.0513 17.9996 10.0002Z" fill="#FF562E"/>
<path d="M10.7795 9.98487L12.8613 11.9916C12.9477 12.0759 12.9975 12.1909 12.9999 12.3116C13.0023 12.4324 12.9571 12.5492 12.874 12.6368L12.665 12.8575C12.6244 12.901 12.5755 12.936 12.5213 12.9604C12.467 12.9849 12.4084 12.9983 12.3489 12.9998C12.2895 13.0014 12.2302 12.9912 12.1748 12.9696C12.1193 12.9481 12.0686 12.9158 12.0257 12.8745L9.93193 10.8567L8.03068 12.8126C7.94623 12.8986 7.83157 12.9481 7.71114 12.9507C7.59071 12.9533 7.47403 12.9087 7.38596 12.8265L7.16647 12.6198C7.12313 12.5798 7.08826 12.5314 7.06391 12.4777C7.03955 12.4239 7.02622 12.3658 7.02469 12.3068C7.02316 12.2478 7.03347 12.189 7.055 12.1341C7.07654 12.0791 7.10886 12.029 7.15007 11.9868L9.06309 10.0189L7.13852 8.16421C7.05216 8.08002 7.00242 7.96517 7.00009 7.84454C6.99775 7.72392 7.043 7.60723 7.12604 7.51975L7.3349 7.2985C7.37552 7.25499 7.42438 7.22 7.47863 7.19556C7.53289 7.17112 7.59146 7.15772 7.65094 7.15614C7.71041 7.15456 7.76961 7.16483 7.82509 7.18635C7.88056 7.20787 7.93121 7.24022 7.97408 7.2815L9.91009 9.1476L11.864 7.13828C11.9483 7.05231 12.0628 7.00272 12.1832 7.00011C12.3035 6.9975 12.4201 7.04206 12.508 7.12429L12.7286 7.33063C12.7718 7.37075 12.8066 7.41912 12.8308 7.47289C12.8551 7.52667 12.8684 7.58476 12.8698 7.64374C12.8713 7.70273 12.861 7.76141 12.8394 7.81633C12.8179 7.87125 12.7856 7.9213 12.7444 7.96353L10.7795 9.98487Z" fill="white"/>
</svg>
