<svg width="20" height="20" viewBox="0 0 20 20" fill="none" xmlns="http://www.w3.org/2000/svg">
<path d="M17.9996 10.0002C18.043 5.62545 14.5312 2.04423 10.1562 2.00036C10.1046 1.99988 10.053 1.99988 10.0014 2.00036V2.00325C5.626 1.95986 2.04377 5.47117 2.00037 9.84547C1.99989 9.89802 1.99989 9.95058 2.00037 10.0026C1.95842 14.3774 5.47121 17.9577 9.84665 17.9996C9.89824 18.0001 9.94984 18.0001 10.0014 17.9996C14.3769 18.0416 17.9577 14.5293 17.9996 10.1545C18.0001 10.1029 18.0001 10.0513 17.9996 10.0002Z" fill="#358D50"/>
<path d="M14 8.62511L9.44936 13L7 10.187L7.89694 9.50345L9.44936 10.9494L13.2999 8L14 8.62511Z" fill="white"/>
</svg>
