<svg width="20" height="20" viewBox="0 0 20 20" fill="none" xmlns="http://www.w3.org/2000/svg">
<path d="M5.51769 5.81375C4.98666 6.68525 4.71014 7.67813 4.71014 8.68968C4.71014 8.89199 4.75099 10.1868 4.75099 10.1868C4.75099 11.161 4.49333 12.1196 4 12.9662M13.0071 8.68968C13.0039 7.36999 12.1493 5.81375 10.3754 5.81375C8.60159 5.81375 7.56313 7.29834 7.55999 8.61492V9.41171C7.55999 11.3072 7.34611 13.1218 6.19606 14.6376M8.23871 17C9.64014 15.0018 10.3911 12.627 10.3911 10.193V8.58696M11.6402 16.26C12.1493 15.6875 13.0071 13.0625 13.0071 11.3125M15.3087 14.7278C15.7738 13.1809 16 10.1836 16 8.57134C16 5.50243 13.4925 3.00934 10.3911 3H10.3754C9.38876 3 8.41781 3.25834 7.55999 3.747" stroke="#212531" stroke-width="1.5" stroke-linecap="round" stroke-linejoin="round"/>
</svg>
