<svg width="20" height="20" viewBox="0 0 20 20" fill="none" xmlns="http://www.w3.org/2000/svg">
<path d="M9.74998 5C9.91404 5 10.0677 5.08045 10.1611 5.21533L12.4111 8.46533C12.517 8.61821 12.5291 8.81722 12.4429 8.98193C12.3565 9.14666 12.186 9.25 12 9.25H7.49998C7.31401 9.25 7.14342 9.14666 7.05711 8.98193C6.97085 8.81722 6.98301 8.61821 7.08885 8.46533L9.33885 5.21533L9.37644 5.16748C9.47066 5.06162 9.60636 5 9.74998 5Z" fill="#212531"/>
<path fill-rule="evenodd" clip-rule="evenodd" d="M12 10.75C12.186 10.75 12.3565 10.8533 12.4429 11.0181C12.5291 11.1828 12.517 11.3818 12.4111 11.5347L10.1611 14.7847C10.0677 14.9196 9.91404 15 9.74998 15C9.58592 15 9.43224 14.9196 9.33885 14.7847L7.08885 11.5347C6.98301 11.3818 6.97085 11.1828 7.05711 11.0181C7.14342 10.8533 7.31401 10.75 7.49998 10.75H12Z" fill="#ACB5C3"/>
</svg>
