<svg width="20" height="20" viewBox="0 0 20 20" fill="none" xmlns="http://www.w3.org/2000/svg">
<path d="M12.3878 12.4615C12.7808 12.5925 13.2055 12.3801 13.3365 11.9872C13.4675 11.5942 13.2551 11.1695 12.8622 11.0385L12.625 11.75L12.3878 12.4615ZM10 10.875H9.25C9.25 11.1978 9.45657 11.4844 9.76283 11.5865L10 10.875ZM10.75 7.21623C10.75 6.80202 10.4142 6.46623 10 6.46623C9.58579 6.46623 9.25 6.80202 9.25 7.21623H10H10.75ZM12.625 11.75L12.8622 11.0385L10.2372 10.1635L10 10.875L9.76283 11.5865L12.3878 12.4615L12.625 11.75ZM10 10.875H10.75V7.21623H10H9.25V10.875H10ZM17 10H16.25C16.25 13.4518 13.4518 16.25 10 16.25V17V17.75C14.2802 17.75 17.75 14.2802 17.75 10H17ZM10 17V16.25C6.54822 16.25 3.75 13.4518 3.75 10H3H2.25C2.25 14.2802 5.71979 17.75 10 17.75V17ZM3 10H3.75C3.75 6.54822 6.54822 3.75 10 3.75V3V2.25C5.71979 2.25 2.25 5.71979 2.25 10H3ZM10 3V3.75C13.4518 3.75 16.25 6.54822 16.25 10H17H17.75C17.75 5.71979 14.2802 2.25 10 2.25V3Z" fill="#212531"/>
</svg>
