<svg width="20" height="20" viewBox="0 0 20 20" fill="none" xmlns="http://www.w3.org/2000/svg">
<path d="M6.5 5.63699V6.38699C6.76878 6.38699 7.01701 6.24316 7.15067 6.00998L6.5 5.63699ZM7.725 3.5V2.75C7.45622 2.75 7.20799 2.89383 7.07433 3.12701L7.725 3.5ZM12.275 3.5L12.9257 3.12701C12.792 2.89383 12.5438 2.75 12.275 2.75V3.5ZM13.5 5.63699L12.8493 6.00998C12.983 6.24316 13.2312 6.38699 13.5 6.38699V5.63699ZM3 14.7192H3.75V7.41781H3H2.25V14.7192H3ZM4.75 5.63699V6.38699H6.5V5.63699V4.88699H4.75V5.63699ZM6.5 5.63699L7.15067 6.00998L8.37567 3.87299L7.725 3.5L7.07433 3.12701L5.84933 5.264L6.5 5.63699ZM7.725 3.5V4.25H12.275V3.5V2.75H7.725V3.5ZM12.275 3.5L11.6243 3.87299L12.8493 6.00998L13.5 5.63699L14.1507 5.264L12.9257 3.12701L12.275 3.5ZM13.5 5.63699V6.38699H15.25V5.63699V4.88699H13.5V5.63699ZM17 7.41781H16.25V14.7192H17H17.75V7.41781H17ZM17 14.7192H16.25C16.25 15.3009 15.79 15.75 15.25 15.75V16.5V17.25C16.643 17.25 17.75 16.1045 17.75 14.7192H17ZM15.25 5.63699V6.38699C15.79 6.38699 16.25 6.8361 16.25 7.41781H17H17.75C17.75 6.03247 16.643 4.88699 15.25 4.88699V5.63699ZM3 7.41781H3.75C3.75 6.8361 4.21001 6.38699 4.75 6.38699V5.63699V4.88699C3.357 4.88699 2.25 6.03247 2.25 7.41781H3ZM4.75 16.5V15.75C4.21001 15.75 3.75 15.3009 3.75 14.7192H3H2.25C2.25 16.1045 3.357 17.25 4.75 17.25V16.5ZM12.625 10.6233H11.875C11.875 11.6968 11.0232 12.5445 10 12.5445V13.2945V14.0445C11.8763 14.0445 13.375 12.5004 13.375 10.6233H12.625ZM10 13.2945V12.5445C8.97676 12.5445 8.125 11.6968 8.125 10.6233H7.375H6.625C6.625 12.5004 8.12375 14.0445 10 14.0445V13.2945ZM7.375 10.6233H8.125C8.125 9.54982 8.97676 8.70205 10 8.70205V7.95205V7.20205C8.12375 7.20205 6.625 8.74619 6.625 10.6233H7.375ZM10 7.95205V8.70205C11.0232 8.70205 11.875 9.54982 11.875 10.6233H12.625H13.375C13.375 8.74619 11.8763 7.20205 10 7.20205V7.95205ZM15.25 16.5V15.75H4.75V16.5V17.25H15.25V16.5Z" fill="#212531"/>
</svg>
