<svg width="20" height="20" viewBox="0 0 20 20" fill="none" xmlns="http://www.w3.org/2000/svg">
<path d="M17.2 3.5H2.8C2.35817 3.5 2 3.86377 2 4.3125V15.6875C2 16.1362 2.35817 16.5 2.8 16.5H17.2C17.6418 16.5 18 16.1362 18 15.6875V4.3125C18 3.86377 17.6418 3.5 17.2 3.5Z" stroke="#212531" stroke-width="1.5" stroke-linejoin="round"/>
<path d="M7.19998 10.8C8.08362 10.8 8.79998 10.0836 8.79998 9.19998C8.79998 8.31634 8.08362 7.59998 7.19998 7.59998C6.31634 7.59998 5.59998 8.31634 5.59998 9.19998C5.59998 10.0836 6.31634 10.8 7.19998 10.8Z" stroke="#212531" stroke-width="1.5" stroke-linejoin="round"/>
<path d="M9.60005 13.2C9.60005 11.8746 8.52553 10.8 7.20005 10.8C5.87457 10.8 4.80005 11.8746 4.80005 13.2" stroke="#212531" stroke-width="1.5" stroke-linecap="round" stroke-linejoin="round"/>
<path d="M11.6 8.80005H14.8" stroke="#212531" stroke-width="1.5" stroke-linecap="round" stroke-linejoin="round"/>
<path d="M12.4 12H14.8" stroke="#212531" stroke-width="1.5" stroke-linecap="round" stroke-linejoin="round"/>
</svg>
