<svg width="20" height="20" viewBox="0 0 20 20" fill="none" xmlns="http://www.w3.org/2000/svg">
<path d="M15.6521 10.6845L9.6757 7.3536C10.0194 6.93024 10.3281 6.48821 10.5969 6.02818L15.9587 8.66035C15.9332 9.34382 15.8304 10.022 15.6521 10.6845ZM15.006 12.4253C14.416 13.6734 13.5921 14.8341 12.5477 15.8862L10.5808 14.7114L11.8162 13.5313C11.9149 13.4366 11.9709 13.309 11.9725 13.1756C11.974 13.0422 11.921 12.9134 11.8246 12.8166C11.7776 12.7693 11.721 12.7315 11.6583 12.7054C11.5956 12.6793 11.528 12.6655 11.4596 12.6648C11.3912 12.664 11.3233 12.6764 11.26 12.7011C11.1967 12.7258 11.1393 12.7624 11.0911 12.8086L9.66731 14.1687L7.35317 12.786L8.74963 11.8292C8.86212 11.7502 8.93819 11.6328 8.96193 11.5016C8.98567 11.3704 8.95525 11.2355 8.87703 11.1252C8.8388 11.0713 8.78965 11.0252 8.73245 10.9897C8.67525 10.9542 8.61117 10.93 8.54398 10.9184C8.47679 10.9069 8.40786 10.9082 8.34123 10.9225C8.27461 10.9367 8.21165 10.9634 8.15605 11.0012L6.3872 12.2093L4.58405 11.1325C5.80007 10.6017 6.93198 9.91115 7.94676 9.08105C8.30895 8.78263 8.6534 8.46523 8.97853 8.13032L15.3259 11.6706C15.2321 11.9239 15.1243 12.1746 15.006 12.4253ZM16.9107 8.08165C16.8609 8.00018 16.7878 7.93383 16.7 7.8903L14.3509 6.73622L15.8887 3.73602C15.9909 3.53401 15.8243 3.24732 15.5093 3.09265C15.1971 2.93997 14.8591 2.98064 14.7569 3.17999L13.219 6.17819L10.6179 4.9021C10.6109 4.9001 10.6032 4.89543 10.5948 4.8941C10.5864 4.8921 10.578 4.8861 10.5696 4.8841C10.5612 4.8821 10.5556 4.87743 10.5465 4.87543C10.5367 4.87343 10.5297 4.86943 10.522 4.86543L10.4989 4.86143C10.49 4.85894 10.4808 4.8576 10.4716 4.85743C10.4632 4.85543 10.4548 4.85543 10.4471 4.85543C10.4387 4.85343 10.4303 4.85343 10.4191 4.85143H10.3701C10.361 4.85143 10.3526 4.85143 10.3449 4.85343C10.3365 4.85343 10.3281 4.85343 10.3197 4.85543L10.2966 4.85943L10.2714 4.86343L10.2483 4.8701L10.2238 4.87543C10.2154 4.87943 10.207 4.87943 10.2007 4.8841C10.1923 4.8861 10.1839 4.8881 10.1776 4.8941C10.1713 4.8961 10.1636 4.9021 10.1552 4.9041L10.1321 4.9141C10.1248 4.91782 10.1178 4.92206 10.1111 4.92677C10.0952 4.93436 10.0809 4.94477 10.0691 4.95744C10.0616 4.96212 10.0545 4.96748 10.0481 4.97344C10.0425 4.97744 10.0362 4.98344 10.0299 4.98944C10.023 4.9944 10.0167 4.99998 10.011 5.00611C10.0047 5.01211 9.9984 5.01811 9.9942 5.02411C9.98797 5.0298 9.98235 5.03605 9.9774 5.04278C9.97156 5.04938 9.96684 5.0568 9.9634 5.06478L9.9487 5.08478L9.934 5.10745C9.54812 5.84143 9.06774 6.52675 8.50394 7.14758C8.49465 7.15562 8.48684 7.16508 8.48084 7.17559C8.11046 7.58152 7.71023 7.96183 7.28317 8.31366C6.14711 9.24972 4.81925 10.0031 3.33529 10.5505C3.23021 10.5906 3.14125 10.6615 3.08123 10.753C3.02122 10.8444 2.99326 10.9516 3.0014 11.0592C2.99501 11.1508 3.01442 11.2423 3.05761 11.3244C3.1008 11.4064 3.16622 11.476 3.24709 11.5259L12.155 16.8396C12.2167 16.8768 12.2863 16.9007 12.3587 16.9096C12.4573 16.9766 12.5777 17.008 12.6984 16.9982C12.819 16.9885 12.9321 16.9381 13.0174 16.8562C14.2704 15.6555 15.2545 14.3081 15.9426 12.8506C16.6384 11.3792 16.9926 9.87043 16.9996 8.37233C17.0041 8.26899 16.9734 8.16703 16.9121 8.08165" fill="#212531"/>
<path d="M15.0371 2.85544C15.2054 2.83574 15.3967 2.87066 15.5752 2.95798L15.7031 3.03122C15.8234 3.11143 15.9203 3.21136 15.9844 3.32028C16.0692 3.46475 16.1038 3.64291 16.0225 3.80368L14.5537 6.66794L16.7666 7.75583L16.8477 7.8027C16.9217 7.85313 16.9842 7.91853 17.0322 7.99411H17.0342C17.1134 8.10447 17.1528 8.23691 17.1485 8.37204L17.1494 8.37302C17.1423 9.89472 16.7826 11.4253 16.0781 12.915C15.3817 14.3901 14.3862 15.7525 13.1211 16.9648C13.0103 17.0711 12.8641 17.135 12.71 17.1474C12.5674 17.1589 12.4261 17.1234 12.3047 17.0498C12.2247 17.0355 12.1476 17.0096 12.0781 16.9677L3.16994 11.6543L3.16799 11.6533C3.0651 11.5897 2.98077 11.5007 2.92482 11.3945C2.86879 11.2881 2.84325 11.1685 2.85158 11.0488C2.84605 10.9151 2.88217 10.7835 2.95607 10.6709C3.0339 10.5523 3.14863 10.4612 3.28225 10.4101C4.75136 9.86823 6.06538 9.12274 7.18752 8.19821C7.60912 7.85087 8.00458 7.47483 8.37014 7.07419L8.37111 7.07517C8.37832 7.06566 8.38516 7.05621 8.39357 7.04782L8.3926 7.04684C8.94784 6.43543 9.42094 5.76049 9.8008 5.03806L9.80764 5.02536L9.82326 5.0029L9.82717 4.99606L9.82912 4.99802L9.8301 4.99704L9.82717 4.99606L9.84279 4.97556C9.84733 4.9683 9.85215 4.96077 9.85744 4.95407C9.86824 4.9394 9.87923 4.92528 9.8926 4.91306C9.89728 4.90807 9.90048 4.90309 9.90334 4.90036C9.91039 4.89302 9.919 4.88734 9.92678 4.88083L9.94631 4.86325C9.94887 4.86109 9.95132 4.85859 9.95412 4.85642C9.95996 4.85139 9.96647 4.84727 9.97267 4.84274C9.99471 4.82194 10.0197 4.80394 10.0469 4.79099C10.0527 4.78755 10.0585 4.7833 10.0645 4.78024L10.0723 4.77634L10.1074 4.76169C10.1096 4.76062 10.1122 4.75911 10.1153 4.75778C10.1171 4.75697 10.1197 4.75579 10.1221 4.75485C10.1323 4.74999 10.141 4.74548 10.1485 4.74313L10.1504 4.74216C10.1551 4.74027 10.1595 4.73843 10.1631 4.73727L10.1748 4.73239L10.208 4.72458L10.2295 4.7197L10.2383 4.71677L10.2481 4.71481L10.2735 4.71091L10.294 4.70798C10.3184 4.70333 10.3394 4.70309 10.3447 4.70309C10.3579 4.70207 10.3676 4.70114 10.3701 4.70114H10.4326L10.4453 4.70407C10.445 4.70402 10.4451 4.70351 10.4502 4.70407C10.4531 4.70439 10.4602 4.70551 10.4688 4.707C10.4704 4.70711 10.4719 4.70783 10.4737 4.70798L10.4746 4.707C10.4911 4.70732 10.5073 4.71039 10.5235 4.71384L10.5479 4.71774L10.5703 4.72165L10.5908 4.73239L10.5938 4.73337C10.5998 4.73524 10.605 4.73748 10.6094 4.73923L10.6045 4.73825C10.6072 4.7389 10.6099 4.7395 10.6123 4.7402C10.6166 4.742 10.6196 4.74342 10.6211 4.74411L10.6201 4.74313C10.6255 4.74494 10.6304 4.74659 10.6338 4.74802L10.6465 4.75388C10.6443 4.75297 10.6382 4.75002 10.6299 4.74802L10.6289 4.74899C10.6461 4.75281 10.6595 4.75686 10.6641 4.75876C10.6657 4.75941 10.6674 4.76046 10.668 4.76071L10.6719 4.76169L10.6836 4.76755L13.1524 5.97849L14.6231 3.1113C14.7049 2.9518 14.8712 2.87492 15.0371 2.85544ZM15.0723 3.15329C14.966 3.16577 14.9112 3.20834 14.8906 3.24802L13.3526 6.24704L13.2852 6.3779L13.1533 6.31247L12.1358 5.81442L10.5528 5.03708C10.5438 5.03453 10.5363 5.03234 10.5313 5.03024C10.5272 5.02853 10.523 5.02654 10.5205 5.02536C10.5155 5.02373 10.5105 5.02294 10.5069 5.02145C10.5009 5.01904 10.4957 5.01588 10.4951 5.01559C10.4923 5.01427 10.4999 5.01666 10.5108 5.0195C10.5021 5.01745 10.4945 5.0143 10.4873 5.01169L10.4737 5.00876L10.4658 5.00778L10.4649 5.00681H10.4522L10.4483 5.00583H10.4297L10.419 5.0029C10.417 5.00268 10.4112 5.00175 10.4053 5.00095H10.375L10.3643 5.00388H10.3408C10.3415 5.00384 10.3431 5.0031 10.3447 5.0029L10.3223 5.00681L10.3203 5.00778L10.3037 5.00974L10.2901 5.01462L10.2705 5.01852L10.2656 5.02243L10.2578 5.02438L10.2559 5.02634L10.2305 5.03415C10.2279 5.03545 10.2251 5.03754 10.2217 5.03903C10.2196 5.03994 10.2165 5.03997 10.2139 5.04099L10.1953 5.04977L10.1875 5.05661L10.1758 5.06247L10.1651 5.07419L10.1485 5.08493L10.1426 5.08981L10.1358 5.09567L10.126 5.10544L10.1182 5.1113L10.1123 5.11716L10.1074 5.12399L10.0987 5.13181L10.0947 5.13962L10.084 5.15329L10.0694 5.1738L10.0596 5.18942C9.66895 5.92989 9.18414 6.62152 8.61525 7.24802L8.60842 7.25485L8.60256 7.26462L8.59182 7.27634C8.21664 7.68752 7.81138 8.07337 7.37892 8.42966C6.229 9.37714 4.88539 10.1386 3.38674 10.6914C3.3113 10.7207 3.24887 10.7714 3.20705 10.8349C3.17551 10.883 3.15642 10.9371 3.15139 10.9922V11.0693C3.14696 11.1328 3.16011 11.1972 3.19045 11.2549C3.22083 11.3124 3.26766 11.3623 3.32619 11.3984L12.2315 16.7109C12.2532 16.724 12.2775 16.7348 12.3018 16.7431L12.377 16.7607L12.4131 16.7646L12.4434 16.7851C12.5132 16.8325 12.5994 16.8557 12.6865 16.8486C12.7735 16.8415 12.8535 16.8052 12.9131 16.748C14.1538 15.559 15.127 14.2256 15.8067 12.7861C16.4937 11.3331 16.8427 9.84634 16.8496 8.37204V8.36618L16.8477 8.31442C16.8412 8.26299 16.8216 8.21292 16.7901 8.16892L16.9121 8.08165L16.7822 8.16013C16.7476 8.10352 16.6969 8.05569 16.6338 8.02438L14.2852 6.87106L14.1475 6.80368L14.2178 6.66794L15.7549 3.66794L15.7666 3.63278C15.7736 3.5926 15.7652 3.53856 15.7266 3.47263C15.6882 3.40725 15.6239 3.33917 15.5371 3.28122L15.4434 3.22751C15.31 3.16229 15.1765 3.14116 15.0723 3.15329ZM9.05178 7.99899L15.3994 11.54L15.5108 11.6025L15.4668 11.7226C15.3712 11.9808 15.2601 12.235 15.1406 12.4883L15.1416 12.4892C14.5438 13.7538 13.7098 14.9288 12.6543 15.9922L12.5713 16.0752L12.4707 16.0146L10.5039 14.8398L10.335 14.7392L10.4776 14.6025L11.7119 13.4228C11.7824 13.3552 11.8212 13.2659 11.8223 13.1738C11.8234 13.0819 11.7872 12.9918 11.7188 12.9228C11.6859 12.8898 11.6454 12.8624 11.6006 12.8437C11.5558 12.8251 11.5073 12.815 11.458 12.8144C11.4087 12.8139 11.3598 12.8231 11.3145 12.8408C11.2693 12.8584 11.229 12.8847 11.1953 12.917L9.77053 14.2773L9.6885 14.3564L9.59084 14.2978L7.07521 12.7949L8.6631 11.706C8.74441 11.6489 8.798 11.5656 8.81447 11.4746C8.8308 11.3838 8.81007 11.2898 8.7549 11.2119C8.72846 11.1746 8.6939 11.1423 8.65334 11.1172C8.61278 11.092 8.56695 11.0747 8.51857 11.0664C8.47018 11.0581 8.42004 11.0591 8.37209 11.0693C8.32436 11.0795 8.27945 11.0984 8.24025 11.125L6.4717 12.333L6.3926 12.3877L6.31057 12.3379L4.50685 11.2617L4.25685 11.1113L4.52443 10.9951C5.72789 10.4697 6.84766 9.78603 7.85158 8.96481L8.11623 8.7402C8.378 8.51208 8.6302 8.27352 8.87111 8.02536L8.95119 7.94333L9.05178 7.99899ZM9.00392 8.31638C8.78191 8.54094 8.55235 8.75862 8.3135 8.96677L8.04201 9.19724C7.08992 9.97606 6.03435 10.6302 4.90529 11.1494L6.38088 12.0302L8.07131 10.8769C8.14309 10.8282 8.22438 10.7936 8.30959 10.7754C8.39487 10.7572 8.4834 10.7557 8.56935 10.7705C8.65533 10.7853 8.73772 10.8165 8.81154 10.8623C8.88525 10.908 8.94908 10.9677 8.99904 11.0381C9.1002 11.1808 9.14043 11.3568 9.10939 11.5283C9.07838 11.6997 8.97962 11.8512 8.83596 11.9521L8.834 11.9531L7.63088 12.7773L9.64553 13.9814L10.9873 12.7002L11.0889 12.6201C11.1254 12.5968 11.1645 12.5774 11.2051 12.5615C11.2863 12.5298 11.3736 12.5137 11.461 12.5146C11.5484 12.5156 11.6353 12.5338 11.7158 12.5674C11.7964 12.6009 11.8695 12.6494 11.9307 12.7109C12.0547 12.8355 12.1241 13.0029 12.1221 13.1777C12.1205 13.3085 12.079 13.434 12.0049 13.54L11.9199 13.6396L10.8262 14.6836L12.5215 15.6953C13.5157 14.6768 14.3034 13.56 14.8701 12.3613L15.0371 11.9902C15.073 11.9063 15.1049 11.8214 15.1377 11.7373L9.00392 8.31638ZM10.6631 5.89352L16.0244 8.52536L16.1123 8.56833L16.1084 8.66599C16.0825 9.36075 15.9781 10.0512 15.7969 10.7246L15.6524 10.6855L15.6521 10.6845L15.5791 10.8154L9.44631 7.39743L9.55959 7.25876C9.89867 6.84104 10.2032 6.40497 10.4678 5.95212L10.5381 5.832L10.6631 5.89352ZM10.6524 6.22263C10.4268 6.59661 10.176 6.95842 9.90139 7.30759L15.5518 10.457C15.6897 9.89625 15.7741 9.32538 15.8018 8.74997L10.6524 6.22263ZM10.6201 4.74313C10.6177 4.7423 10.6152 4.74102 10.6123 4.7402C10.6114 4.73983 10.6104 4.73963 10.6094 4.73923L10.6201 4.74313ZM10.169 4.73532C10.1701 4.73501 10.1713 4.7355 10.1719 4.73532C10.1764 4.73409 10.1748 4.73406 10.1738 4.73434C10.1729 4.73463 10.1708 4.73465 10.169 4.73532Z" fill="#212531"/>
</svg>
