<svg width="24" height="24" viewBox="0 0 24 24" fill="none" xmlns="http://www.w3.org/2000/svg">
<path d="M18.6406 12.4506C18.722 11.2105 18.4589 9.97209 17.8804 8.87218C17.302 7.77226 16.4306 6.85372 15.3627 6.21809C14.2948 5.58245 13.0719 5.25449 11.8293 5.27043C10.5866 5.28638 9.37259 5.64563 8.32135 6.30845C8.24521 6.35483 8.17902 6.41584 8.1266 6.48796C8.07418 6.56007 8.03658 6.64187 8.01597 6.72861C7.99537 6.81535 7.99216 6.90531 8.00654 6.9933C8.02092 7.08129 8.0526 7.16555 8.09975 7.24122C8.1469 7.31688 8.20858 7.38245 8.28123 7.43413C8.35388 7.48581 8.43605 7.52257 8.523 7.54229C8.60994 7.56201 8.69994 7.5643 8.78777 7.54902C8.87561 7.53375 8.95954 7.50121 9.03472 7.45329C9.88178 6.91834 10.8611 6.62998 11.8629 6.62057C12.8647 6.61116 13.8493 6.88106 14.7063 7.4C15.5632 7.91895 16.2587 8.6664 16.7145 9.55851C17.1704 10.4506 17.3686 11.4521 17.2871 12.4506H15.9179L17.959 15.7087L20 12.4506H18.6406ZM15.8521 16.6983C15.7488 16.5687 15.6013 16.4817 15.4379 16.4541C15.2744 16.4266 15.1065 16.4602 14.9664 16.5488C14.1193 17.0836 13.14 17.3719 12.1383 17.3812C11.1366 17.3906 10.152 17.1207 9.29514 16.6017C8.43825 16.0828 7.74288 15.3354 7.28703 14.4434C6.83119 13.5513 6.6329 12.5499 6.7144 11.5514H8.08356L6.04253 8.29341L4 11.5496H5.36094C5.27953 12.7897 5.5426 14.0281 6.12107 15.128C6.69954 16.2279 7.57089 17.1465 8.63879 17.7821C9.70669 18.4177 10.9296 18.7457 12.1722 18.7298C13.4149 18.7138 14.6289 18.3546 15.6801 17.6917C15.7609 17.6414 15.8301 17.5745 15.8832 17.4955C15.9363 17.4166 15.9722 17.3273 15.9884 17.2335C16.0047 17.1397 16.0009 17.0436 15.9774 16.9514C15.9539 16.8591 15.9112 16.7729 15.8521 16.6983Z" fill="#212531"/>
<path d="M9.97355 9.94411C9.97353 10.2142 10.0267 10.4816 10.13 10.7311C10.2334 10.9806 10.3848 11.2073 10.5758 11.3983C10.7667 11.5892 10.9934 11.7407 11.2429 11.8441C11.4924 11.9474 11.7599 12.0006 12.0299 12.0006C12.3 12.0006 12.5674 11.9474 12.8169 11.8441C13.0664 11.7407 13.2931 11.5892 13.484 11.3983C13.675 11.2073 13.8265 10.9806 13.9298 10.7311C14.0331 10.4816 14.0863 10.2142 14.0863 9.94411C14.0863 9.67405 14.0331 9.40663 13.9298 9.15712C13.8265 8.90761 13.675 8.6809 13.484 8.48993C13.2931 8.29896 13.0664 8.14748 12.8169 8.04412C12.5674 7.94077 12.3 7.88758 12.0299 7.88758C11.7599 7.88758 11.4924 7.94077 11.2429 8.04412C10.9934 8.14748 10.7667 8.29896 10.5758 8.48993C10.3848 8.6809 10.2334 8.90761 10.13 9.15712C10.0267 9.40663 9.97353 9.67405 9.97355 9.94411Z" fill="#212531"/>
<path d="M8.82984 15.3654C8.66482 15.3606 8.50605 15.3012 8.37829 15.1967C8.25054 15.0921 8.16097 14.9482 8.12357 14.7874C8.2186 13.8171 8.67127 12.9169 9.39347 12.262C10.1157 11.607 11.0557 11.2443 12.0307 11.2443C13.0056 11.2443 13.9456 11.607 14.6678 12.262C15.39 12.9169 15.8427 13.8171 15.9377 14.7874C15.9003 14.9484 15.8105 15.0925 15.6824 15.1971C15.5544 15.3017 15.3953 15.3609 15.23 15.3654H8.82984Z" fill="#212531"/>
</svg>
