<svg width="24" height="24" viewBox="0 0 24 24" fill="none" xmlns="http://www.w3.org/2000/svg">
<path d="M17.5129 17.9997H6.51823C6.45108 18.0022 6.38412 17.9908 6.32136 17.9661C6.2586 17.9414 6.20132 17.904 6.15295 17.8561C6.10458 17.8082 6.0661 17.7507 6.03982 17.6872C6.01354 17.6236 6 17.5553 6 17.4863C6 17.4172 6.01354 17.3489 6.03982 17.2853C6.0661 17.2218 6.10458 17.1643 6.15295 17.1164C6.20132 17.0685 6.2586 17.0311 6.32136 17.0064C6.38412 16.9817 6.45108 16.9703 6.51823 16.9729H17.5129C17.6433 16.9763 17.7671 17.0319 17.8581 17.1279C17.9491 17.2238 18 17.3525 18 17.4864C18 17.6204 17.9491 17.749 17.8581 17.845C17.7671 17.9409 17.6433 17.9965 17.5129 18V17.9997ZM7.81249 16.1824C7.59492 16.1817 7.3835 16.1082 7.21032 15.9729C7.03713 15.8376 6.91163 15.6479 6.85287 15.4326C6.79798 15.2469 6.79798 15.0485 6.85287 14.8627L7.51784 12.7108C7.54226 12.6355 7.58333 12.5671 7.63783 12.5108L9.8917 10.0921L13.4298 6.45068C13.711 6.1621 14.0921 6 14.4894 6C14.8868 6 15.2679 6.1621 15.549 6.45068L16.2587 7.1802C16.5393 7.46903 16.6969 7.8605 16.6969 8.26865C16.6969 8.6768 16.5393 9.06827 16.2587 9.3571L12.7202 12.9879L10.4613 15.4015C10.3983 15.4683 10.3188 15.5162 10.2313 15.5402L8.07747 16.1409C7.99149 16.1675 7.90227 16.1813 7.81249 16.182V16.1824Z" fill="#212531"/>
</svg>
