<svg width="24" height="24" viewBox="0 0 24 24" fill="none" xmlns="http://www.w3.org/2000/svg">
<path fill-rule="evenodd" clip-rule="evenodd" d="M13.1793 5.5C13.8601 5.5 14.412 6.08963 14.412 6.81703V10.2838H15.6304C15.7178 10.2838 15.8022 10.3168 15.869 10.377L15.8821 10.3894C15.9539 10.4606 15.9964 10.5596 16 10.6643C16.0037 10.769 15.9682 10.871 15.9015 10.9478L12.272 15.1238C12.2021 15.2043 12.1039 15.25 12.0011 15.25C11.8983 15.25 11.8001 15.2043 11.7301 15.1238L8.10065 10.9478C8.00061 10.8326 7.97388 10.665 8.03271 10.5209C8.09148 10.3769 8.22462 10.2838 8.37167 10.2838H9.59012V6.81703C9.59012 6.08963 10.142 5.5 10.8228 5.5H13.1793Z" fill="#212531"/>
<path fill-rule="evenodd" clip-rule="evenodd" d="M8.00002 16.3333H16C16.6667 16.3333 17 16.6945 17 17.4166C17 18.1389 16.6667 18.5 16 18.5H8.00002C7.33333 18.5 7 18.1389 7 17.4166C7 16.6945 7.33333 16.3333 8.00002 16.3333Z" fill="#212531"/>
</svg>
