<svg width="24" height="24" viewBox="0 0 24 24" fill="none" xmlns="http://www.w3.org/2000/svg">
<path d="M16.4231 8.14286H7.57692C7.42391 8.14286 7.27717 8.07513 7.16898 7.95457C7.06078 7.83401 7 7.6705 7 7.5C7 7.3295 7.06078 7.16599 7.16898 7.04543C7.27717 6.92487 7.42391 6.85714 7.57692 6.85714H10.4615C10.4615 6.62981 10.5426 6.4118 10.6868 6.25105C10.8311 6.09031 11.0268 6 11.2308 6H12.7692C12.9732 6 13.1689 6.09031 13.3132 6.25105C13.4574 6.4118 13.5385 6.62981 13.5385 6.85714H16.4231C16.5761 6.85714 16.7228 6.92487 16.831 7.04543C16.9392 7.16599 17 7.3295 17 7.5C17 7.6705 16.9392 7.83401 16.831 7.95457C16.7228 8.07513 16.5761 8.14286 16.4231 8.14286ZM15.8462 16.2857C15.8462 16.7404 15.6841 17.1764 15.3955 17.4979C15.107 17.8194 14.7157 18 14.3077 18H9.69231C9.28428 18 8.89297 17.8194 8.60445 17.4979C8.31593 17.1764 8.15385 16.7404 8.15385 16.2857V9H15.8462V16.2857ZM11.2308 11.3571C11.2308 11.1866 11.17 11.0231 11.0618 10.9026C10.9536 10.782 10.8069 10.7143 10.6538 10.7143C10.5008 10.7143 10.3541 10.782 10.2459 10.9026C10.1377 11.0231 10.0769 11.1866 10.0769 11.3571V15.2143C10.0769 15.3848 10.1377 15.5483 10.2459 15.6689C10.3541 15.7894 10.5008 15.8571 10.6538 15.8571C10.8069 15.8571 10.9536 15.7894 11.0618 15.6689C11.17 15.5483 11.2308 15.3848 11.2308 15.2143V11.3571ZM13.9231 11.3571C13.9231 11.1866 13.8623 11.0231 13.7541 10.9026C13.6459 10.782 13.4992 10.7143 13.3462 10.7143C13.1931 10.7143 13.0464 10.782 12.9382 10.9026C12.83 11.0231 12.7692 11.1866 12.7692 11.3571V15.2143C12.7692 15.3848 12.83 15.5483 12.9382 15.6689C13.0464 15.7894 13.1931 15.8571 13.3462 15.8571C13.4992 15.8571 13.6459 15.7894 13.7541 15.6689C13.8623 15.5483 13.9231 15.3848 13.9231 15.2143V11.3571Z" fill="#212531"/>
</svg>
