<svg width="24" height="24" viewBox="0 0 24 24" fill="none" xmlns="http://www.w3.org/2000/svg">
<path fill-rule="evenodd" clip-rule="evenodd" d="M12.3445 10.1534C11.3319 10.1557 10.5131 11.0322 10.5131 12.0459C10.5131 13.0592 11.3319 13.9384 12.3445 13.9384C13.3571 13.9384 14.1759 13.0591 14.1759 12.0459C14.1759 11.0318 13.3571 10.1514 12.3445 10.1534ZM12.3445 15.2C10.5727 15.2 9.29199 13.82 9.29199 12.0459C9.29199 10.2717 10.5728 8.89205 12.3445 8.89205C14.1162 8.89205 15.3969 10.2715 15.3969 12.0459C15.3969 13.82 14.1162 15.2 12.3445 15.2ZM12.3335 7C7.48785 7 5 12.046 5 12.046C5 12.046 6.87734 17.0926 12.3335 17.0926C17.2745 17.0926 19.6667 12.0656 19.6667 12.0656C19.6667 12.0656 17.2555 7 12.3335 7Z" fill="#212531"/>
</svg>
